0
SECTION
2
HEADER
9
$INSUNITS
70
4
9
$ACADVER
1
AC1014
9
$HANDSEED
5
FFFF
0
ENDSEC
0
SECTION
2
TABLES
0
TABLE
2
VPORT
5
8
100
AcDbSymbolTable
0
ENDTAB
0
TABLE
2
LTYPE
5
5
100
AcDbSymbolTable
0
LTYPE
5
14
100
AcDbSymbolTableRecord
100
AcDbLinetypeTableRecord
2
BYBLOCK
70
0
0
LTYPE
5
15
100
AcDbSymbolTableRecord
100
AcDbLinetypeTableRecord
2
BYLAYER
70
0
0
LTYPE
5
16
100
AcDbSymbolTableRecord
100
AcDbLinetypeTableRecord
2
DASHED
70
0
3
Dashed __ __ __ __ __ __ __ __ __ __ __ __ __ _
72
65
73
2
40
0.75
49
0.5
74
0
49
-0.25
74
0
0
ENDTAB
0
TABLE
2
LAYER
5
2
100
AcDbSymbolTable
70
2
0
LAYER
5
50
100
AcDbSymbolTableRecord
100
AcDbLayerTableRecord
2
0
70
0
62
7
6
CONTINUOUS
0
ENDTAB
0
TABLE
2
STYLE
5
3
100
AcDbSymbolTable
70
1
0
STYLE
5
11
100
AcDbSymbolTableRecord
100
AcDbTextStyleTableRecord
2
STANDARD
70
0
0
ENDTAB
0
TABLE
2
VIEW
5
6
100
AcDbSymbolTable
70
0
0
ENDTAB
0
TABLE
2
UCS
5
7
100
AcDbSymbolTable
70
0
0
ENDTAB
0
TABLE
2
APPID
5
9
100
AcDbSymbolTable
70
2
0
APPID
5
12
100
AcDbSymbolTableRecord
100
AcDbRegAppTableRecord
2
ACAD
70
0
0
ENDTAB
0
TABLE
2
DIMSTYLE
5
A
100
AcDbSymbolTable
70
1
0
ENDTAB
0
TABLE
2
BLOCK_RECORD
5
1
100
AcDbSymbolTable
70
1
0
BLOCK_RECORD
5
1F
100
AcDbSymbolTableRecord
100
AcDbBlockTableRecord
2
*MODEL_SPACE
0
BLOCK_RECORD
5
1B
100
AcDbSymbolTableRecord
100
AcDbBlockTableRecord
2
*PAPER_SPACE
0
ENDTAB
0
ENDSEC
0
SECTION
2
BLOCKS
0
BLOCK
5
20
100
AcDbEntity
100
AcDbBlockBegin
2
*MODEL_SPACE
0
ENDBLK
5
21
100
AcDbEntity
100
AcDbBlockEnd
0
BLOCK
5
1C
100
AcDbEntity
100
AcDbBlockBegin
2
*PAPER_SPACE
0
ENDBLK
5
1D
100
AcDbEntity
100
AcDbBlockEnd
0
ENDSEC
0
SECTION
2
ENTITIES
0
LWPOLYLINE
5
100
100
AcDbEntity
8
0
100
AcDbPolyline
90
4
70
1
43
0.0
10
-85.742297367439292
20
0.2736842105273754
42
0.99999999999999989
10
-84.162367848340551
20
0.52631578947268154
42
-0.33548663397437861
10
-82.463157883926854
20
3.7211086270963261
42
0.9999999925494194
10
-83.13684210526047
20
5.1723665538364791
42
0.33548663286915503
0
LWPOLYLINE
5
101
100
AcDbEntity
8
0
100
AcDbPolyline
90
4
70
1
43
0.0
10
-71.293750000000017
20
73.675000000000011
10
-57.293750000000017
20
73.675000000000011
10
-57.293750000000017
20
59.675000000000011
10
-71.293750000000017
20
59.675000000000004
0
LWPOLYLINE
5
102
100
AcDbEntity
8
0
100
AcDbPolyline
90
4
70
1
43
0.0
10
-68.912500000000009
20
92.725000000000065
10
-54.912500000000016
20
92.725000000000065
10
-54.912500000000009
20
78.725000000000037
10
-68.912500000000009
20
78.725000000000023
0
CIRCLE
5
103
100
AcDbEntity
8
0
100
AcDbCircle
10
-97.86875000000002
20
95.250000000000028
30
-6.9944050551384862e-14
40
1.3499999999999981
210
1.4390138858017759e-33
220
7.6327832942979492e-16
230
1
0
LWPOLYLINE
5
104
100
AcDbEntity
8
0
100
AcDbPolyline
90
4
70
1
43
0.0
10
-87.962500000000006
20
54.625000000000014
10
-73.962500000000006
20
54.625
10
-73.962500000000006
20
40.625000000000007
10
-87.962500000000006
20
40.625000000000007
0
LWPOLYLINE
5
105
100
AcDbEntity
8
0
100
AcDbPolyline
90
4
70
1
43
0.0
10
-66.531250000000014
20
111.77500000000006
10
-52.531250000000014
20
111.77500000000008
10
-52.531250000000007
20
97.775000000000048
10
-66.531250000000014
20
97.775000000000048
0
LWPOLYLINE
5
106
100
AcDbEntity
8
0
100
AcDbPolyline
90
4
70
1
43
0.0
10
-59.675000000000011
20
16.524999999999999
10
-59.675000000000004
20
2.5249999999999906
10
-73.675000000000011
20
2.5249999999999906
10
-73.675000000000011
20
16.524999999999995
0
LWPOLYLINE
5
107
100
AcDbEntity
8
0
100
AcDbPolyline
90
4
70
1
43
0.0
10
-35.575000000000003
20
2.5249999999999941
10
-35.575000000000003
20
16.524999999999999
10
-21.574999999999996
20
16.525000000000002
10
-21.574999999999996
20
2.5249999999999928
0
LWPOLYLINE
5
108
100
AcDbEntity
8
0
100
AcDbPolyline
90
4
70
1
43
0.0
10
-49.862500000000018
20
92.725000000000065
10
-35.862500000000011
20
92.725000000000065
10
-35.862500000000011
20
78.725000000000037
10
-49.862500000000018
20
78.725000000000037
0
LWPOLYLINE
5
109
100
AcDbEntity
8
0
100
AcDbPolyline
90
4
70
1
43
0.0
10
-47.48125000000001
20
111.77500000000006
10
-33.481250000000017
20
111.77500000000008
10
-33.48125000000001
20
97.775000000000048
10
-47.48125000000001
20
97.775000000000048
0
LWPOLYLINE
5
110
100
AcDbEntity
8
0
100
AcDbPolyline
90
4
70
1
43
0.0
10
-49.862500000000018
20
54.625000000000014
10
-35.862500000000011
20
54.625
10
-35.862500000000004
20
40.625000000000014
10
-49.862500000000018
20
40.625000000000014
0
LWPOLYLINE
5
111
100
AcDbEntity
8
0
100
AcDbPolyline
90
29
70
1
43
0.0
10
-28.956250000000011
20
114.30000000000004
42
0.41421356237309892
10
-30.956250000000015
20
116.30000000000004
10
-43.65539703891411
20
116.30000000000004
42
-0.2679491924311112
10
-45.387447846482971
20
117.30000000000004
10
-47.408173788646685
20
120.80000000000005
42
0.57735026918963239
10
-52.604326211353325
20
120.80000000000005
10
-54.625052153517039
20
117.30000000000004
42
-0.26794919243111631
10
-56.357102961085921
20
116.30000000000004
10
-92.86875000000002
20
116.30000000000004
42
0.41421356237309764
10
-94.868750000000034
20
114.30000000000005
10
-94.868750000000048
20
101.60085296108593
42
-0.26794919243112048
10
-95.868750000000034
20
99.868802153517066
10
-99.36875000000002
20
97.848076211353302
42
0.57735026918962318
10
-99.368750000000006
20
92.651923788646741
10
-95.868750000000006
20
90.631197846483047
42
-0.26794919243111881
10
-94.868750000000006
20
88.899147038914194
10
-94.868749999999991
20
-9.8607613152626476e-31
42
0.41421356237309631
10
-92.868750000000006
20
-2.0000000000000013
10
-9.8607613152626476e-31
20
-2.0000000000000013
42
0.4142135623730942
10
1.9999999999999927
20
1.1114250950563636e-15
10
1.9999999999999813
20
12.699147038914118
42
-0.26794919243112358
10
2.9999999999999782
20
14.431197846482986
10
6.4999999999999876
20
16.451923788646678
42
0.57735026918962573
10
6.4999999999999876
20
21.648076211353313
10
2.9999999999999787
20
23.66880215351701
42
-0.2679491924311232
10
1.9999999999999885
20
25.400852961085878
10
1.9999999999999751
20
57.15000000000002
42
0.41421356237309442
10
-2.5024086827845054e-14
20
59.15000000000002
10
-28.956250000000008
20
59.150000000000027
0
LWPOLYLINE
5
112
100
AcDbEntity
8
0
100
AcDbPolyline
90
4
70
1
43
0.0
10
0.81871530136723125
20
15.793182800807035
42
0.99999999999999989
10
2.0809899273701662
20
16.776372898677078
42
-0.34349956811899807
10
2.0809899273701653
20
21.323627101322913
42
0.99999999999999989
10
0.81871530136724102
20
22.30681719919297
42
0.34349956811899995
0
LWPOLYLINE
5
113
100
AcDbEntity
8
0
100
AcDbPolyline
90
4
70
1
43
0.0
10
-46.749432800804357
20
115.11871530136781
42
0.9999999925494194
10
-47.732622898674052
20
116.38098992736836
42
-0.34349956811915611
10
-52.279877101325674
20
116.38098992736815
42
1.0000000074505806
10
-53.263067199195014
20
115.11871530136733
42
0.34349956811921195
0
LWPOLYLINE
5
114
100
AcDbEntity
8
0
100
AcDbPolyline
90
4
70
1
43
0.0
10
-93.687465308693504
20
98.506817208598818
42
0.9999999925494194
10
-94.949739927368853
20
97.523627101325388
42
-0.34349956901965939
10
-94.94973993469408
20
92.976372889270095
42
0.99999999999999989
10
-93.687465301368206
20
91.993182800805926
42
0.34349956874780979
0
LWPOLYLINE
5
115
100
AcDbEntity
8
0
100
AcDbPolyline
90
4
70
1
43
0.0
10
-87.962500000000006
20
92.725000000000065
10
-73.962500000000006
20
92.725000000000065
10
-73.962500000000006
20
78.725000000000037
10
-87.962500000000006
20
78.725000000000023
0
LWPOLYLINE
5
116
100
AcDbEntity
8
0
100
AcDbPolyline
90
4
70
1
43
0.0
10
-85.581250000000026
20
97.775000000000048
10
-85.581250000000026
20
111.77500000000008
10
-71.581250000000011
20
111.77500000000008
10
-71.581250000000011
20
97.775000000000063
0
LWPOLYLINE
5
117
100
AcDbEntity
8
0
100
AcDbPolyline
90
4
70
1
43
0.0
10
-68.912500000000009
20
54.625000000000014
10
-54.912500000000016
20
54.625
10
-54.912500000000009
20
40.625000000000007
10
-68.912500000000009
20
40.625000000000007
0
LWPOLYLINE
5
118
100
AcDbEntity
8
0
100
AcDbPolyline
90
4
70
1
43
0.0
10
-35.575000000000003
20
35.57500000000001
10
-21.575000000000003
20
35.57500000000001
10
-21.575000000000003
20
21.575000000000006
10
-35.575000000000003
20
21.575000000000006
0
LWPOLYLINE
5
119
100
AcDbEntity
8
0
100
AcDbPolyline
90
4
70
1
43
0.0
10
-30.812500000000007
20
54.625000000000021
10
-16.812500000000007
20
54.625000000000014
10
-16.8125
20
40.625000000000014
10
-30.812500000000007
20
40.625000000000014
0
LWPOLYLINE
5
120
100
AcDbEntity
8
0
100
AcDbPolyline
90
4
70
1
43
0.0
10
-40.625
20
35.57500000000001
10
-40.625
20
21.575000000000003
10
-54.625
20
21.575000000000003
10
-54.625
20
35.57500000000001
0
LWPOLYLINE
5
121
100
AcDbEntity
8
0
100
AcDbPolyline
90
4
70
1
43
0.0
10
-54.625
20
2.5249999999999924
10
-54.625
20
16.524999999999999
10
-40.625
20
16.525000000000002
10
-40.625
20
2.5249999999999906
0
LWPOLYLINE
5
122
100
AcDbEntity
8
0
100
AcDbPolyline
90
4
70
1
43
0.0
10
-90.343750000000028
20
73.675000000000011
10
-76.343750000000014
20
73.675000000000011
10
-76.343750000000028
20
59.675000000000011
10
-90.343750000000043
20
59.675000000000004
0
CIRCLE
5
123
100
AcDbEntity
8
0
100
AcDbCircle
10
4.9999999999999867
20
19.049999999999997
30
-1.4432899320127032e-14
40
1.3500000000000003
210
2.7014722143044797e-33
220
7.4940054162198047e-16
230
1
0
LWPOLYLINE
5
124
100
AcDbEntity
8
0
100
AcDbPolyline
90
4
70
1
43
0.0
10
-16.524999999999999
20
2.5249999999999955
10
-16.525000000000002
20
16.525000000000002
10
-2.5249999999999995
20
16.525000000000002
10
-2.5249999999999946
20
2.524999999999995
0
LWPOLYLINE
5
125
100
AcDbEntity
8
0
100
AcDbPolyline
90
4
70
1
43
0.0
10
-59.675000000000011
20
35.57500000000001
10
-59.675000000000004
20
21.575000000000003
10
-73.675000000000011
20
21.575000000000003
10
-73.675000000000011
20
35.575000000000003
0
CIRCLE
5
126
100
AcDbEntity
8
0
100
AcDbCircle
10
-50.006250000000001
20
119.30000000000008
30
-8.8817841970012511e-14
40
1.3499999999999981
210
1.4390138858017759e-33
220
7.6327832942979492e-16
230
1
0
LWPOLYLINE
5
127
100
AcDbEntity
8
0
100
AcDbPolyline
90
4
70
1
43
0.0
10
-16.525000000000002
20
21.575000000000006
10
-16.525000000000002
20
35.57500000000001
10
-2.5249999999999995
20
35.575000000000017
10
-2.5249999999999959
20
21.575000000000003
0
LWPOLYLINE
5
128
100
AcDbEntity
8
0
100
AcDbPolyline
90
4
70
1
43
0.0
10
-52.243750000000027
20
73.675000000000011
10
-38.24375000000002
20
73.675000000000011
10
-38.243750000000013
20
59.675000000000018
10
-52.24375000000002
20
59.675000000000011
0
CIRCLE
5
129
100
AcDbEntity
8
0
100
AcDbCircle
10
-81.200000000000017
20
0.99999999999999889
30
0
40
1.3499999999999981
210
1.4390138858017759e-33
220
7.6327832942979492e-16
230
1
0
LWPOLYLINE
5
130
100
AcDbEntity
8
0
100
AcDbPolyline
90
4
70
1
43
0.0
10
-79.263157894739535
20
5.1723665538365022
42
0.99999999999999989
10
-79.936842105260467
20
3.7211086220769491
42
-0.3354866328691587
10
-78.237632151659525
20
0.52631578947268531
42
0.9999999925494194
10
-76.657702632560685
20
0.27368421052737191
42
0.33548663286915448
0
CIRCLE
5
131
100
AcDbEntity
8
0
100
AcDbCircle
10
-70.246875000000017
20
95.250000000000043
30
-6.7723604502134549e-14
40
0.80000000000000082
210
-3.8001569671509839e-34
220
7.4940054162198047e-16
230
1
0
CIRCLE
5
132
100
AcDbEntity
8
0
100
AcDbCircle
10
-90.868749999999991
20
57.150000000000006
30
-4.2188474935755949e-14
40
0.80000000000000082
210
-3.8001569671509839e-34
220
7.4940054162198047e-16
230
1
0
CIRCLE
5
133
100
AcDbEntity
8
0
100
AcDbCircle
10
-90.868749999999977
20
19.049999999999983
30
-1.3322676295501878e-14
40
0.80000000000000082
210
-3.8001569671509839e-34
220
7.4940054162198047e-16
230
1
0
CIRCLE
5
134
100
AcDbEntity
8
0
100
AcDbCircle
10
-32.956250000000004
20
95.250000000000057
30
-6.9944050551384862e-14
40
0.80000000000000082
210
-3.8001569671509839e-34
220
7.4940054162198047e-16
230
1
0
CIRCLE
5
135
100
AcDbEntity
8
0
100
AcDbCircle
10
-32.956250000000004
20
57.15000000000002
30
-4.2188474935755949e-14
40
0.80000000000000082
210
-3.8001569671509839e-34
220
7.4940054162198047e-16
230
1
0
CIRCLE
5
136
100
AcDbEntity
8
0
100
AcDbCircle
10
-19.050000000000001
20
19.050000000000001
30
-1.4432899320127035e-14
40
0.80000000000000082
210
-3.8001569671509839e-34
220
7.4940054162198047e-16
230
1
0
ENDSEC
0
SECTION
2
OBJECTS
0
DICTIONARY
5
C
100
AcDbDictionary
3
ACAD_GROUP
350
D
3
ACAD_MLINESTYLE
350
17
0
DICTIONARY
5
D
100
AcDbDictionary
0
DICTIONARY
5
1A
330
C
100
AcDbDictionary
0
DICTIONARY
5
17
100
AcDbDictionary
0
ENDSEC
0
EOF
