0
SECTION
2
HEADER
9
$INSUNITS
70
4
9
$ACADVER
1
AC1014
9
$HANDSEED
5
FFFF
0
ENDSEC
0
SECTION
2
TABLES
0
TABLE
2
VPORT
5
8
100
AcDbSymbolTable
0
ENDTAB
0
TABLE
2
LTYPE
5
5
100
AcDbSymbolTable
0
LTYPE
5
14
100
AcDbSymbolTableRecord
100
AcDbLinetypeTableRecord
2
BYBLOCK
70
0
0
LTYPE
5
15
100
AcDbSymbolTableRecord
100
AcDbLinetypeTableRecord
2
BYLAYER
70
0
0
LTYPE
5
16
100
AcDbSymbolTableRecord
100
AcDbLinetypeTableRecord
2
DASHED
70
0
3
Dashed __ __ __ __ __ __ __ __ __ __ __ __ __ _
72
65
73
2
40
0.75
49
0.5
74
0
49
-0.25
74
0
0
ENDTAB
0
TABLE
2
LAYER
5
2
100
AcDbSymbolTable
70
2
0
LAYER
5
50
100
AcDbSymbolTableRecord
100
AcDbLayerTableRecord
2
0
70
0
62
7
6
CONTINUOUS
0
ENDTAB
0
TABLE
2
STYLE
5
3
100
AcDbSymbolTable
70
1
0
STYLE
5
11
100
AcDbSymbolTableRecord
100
AcDbTextStyleTableRecord
2
STANDARD
70
0
0
ENDTAB
0
TABLE
2
VIEW
5
6
100
AcDbSymbolTable
70
0
0
ENDTAB
0
TABLE
2
UCS
5
7
100
AcDbSymbolTable
70
0
0
ENDTAB
0
TABLE
2
APPID
5
9
100
AcDbSymbolTable
70
2
0
APPID
5
12
100
AcDbSymbolTableRecord
100
AcDbRegAppTableRecord
2
ACAD
70
0
0
ENDTAB
0
TABLE
2
DIMSTYLE
5
A
100
AcDbSymbolTable
70
1
0
ENDTAB
0
TABLE
2
BLOCK_RECORD
5
1
100
AcDbSymbolTable
70
1
0
BLOCK_RECORD
5
1F
100
AcDbSymbolTableRecord
100
AcDbBlockTableRecord
2
*MODEL_SPACE
0
BLOCK_RECORD
5
1B
100
AcDbSymbolTableRecord
100
AcDbBlockTableRecord
2
*PAPER_SPACE
0
ENDTAB
0
ENDSEC
0
SECTION
2
BLOCKS
0
BLOCK
5
20
100
AcDbEntity
100
AcDbBlockBegin
2
*MODEL_SPACE
0
ENDBLK
5
21
100
AcDbEntity
100
AcDbBlockEnd
0
BLOCK
5
1C
100
AcDbEntity
100
AcDbBlockBegin
2
*PAPER_SPACE
0
ENDBLK
5
1D
100
AcDbEntity
100
AcDbBlockEnd
0
ENDSEC
0
SECTION
2
ENTITIES
0
LWPOLYLINE
5
100
100
AcDbEntity
8
0
100
AcDbPolyline
90
4
70
1
43
0.0
10
30.054620583153739
20
-134.25066451133321
42
0.9999999925494194
10
31.493728195688874
20
-133.55140112780506
42
-0.34349956811899618
10
32.439155505539723
20
-129.10351533955776
42
0.99999999999999989
10
31.408881324291336
20
-127.87936865249253
42
0.3434995681189969
0
CIRCLE
5
101
100
AcDbEntity
8
0
100
AcDbCircle
10
11.505358855039137
20
-68.992434133143263
30
-4.6629367034256575e-14
40
1.3499999999999999
210
-1.1608238717886297e-32
220
-6.6613381477509402e-16
230
1
0
CIRCLE
5
102
100
AcDbEntity
8
0
100
AcDbCircle
10
-5.0000000000000213
20
-123.46999845674
30
-7.7715611723760958e-14
40
1.3499999999999999
210
-1.1608238717886297e-32
220
-6.6613381477509402e-16
230
1
0
LWPOLYLINE
5
103
100
AcDbEntity
8
0
100
AcDbPolyline
90
4
70
1
43
0.0
10
6.4857177100782968
20
-99.111863637200557
10
20.485717710078294
20
-99.111863637200557
10
20.485717710078308
20
-113.11186363720056
10
6.485717710078303
20
-113.11186363720054
0
LWPOLYLINE
5
104
100
AcDbEntity
8
0
100
AcDbPolyline
90
4
70
1
43
0.0
10
7.6532276596624085
20
-133.31590918616112
10
10.563991331111067
20
-119.62184277588779
10
24.258057741384352
20
-122.53260644733646
10
21.347294069935714
20
-136.22667285760974
0
LWPOLYLINE
5
105
100
AcDbEntity
8
0
100
AcDbPolyline
90
4
70
1
43
0.0
10
2.9947997111676856
20
-79.897997515759556
10
16.688866121440977
20
-76.987233844310921
10
19.59962979288964
20
-90.681300254584244
10
5.9055633826163216
20
-93.59206392603285
0
LWPOLYLINE
5
106
100
AcDbEntity
8
0
100
AcDbPolyline
90
4
70
1
43
0.0
10
-0.81871530136206505
20
-120.21318125755093
42
0.9999999925494194
10
-2.0809899273660393
20
-121.19637135541934
42
-0.34349956811832444
10
-2.0809899273658843
20
-125.74362555806047
42
1.0000000074505806
10
-0.81871530136174153
20
-126.72681565592958
42
0.34349956811834925
0
LWPOLYLINE
5
107
100
AcDbEntity
8
0
100
AcDbPolyline
90
4
70
1
43
0.0
10
14.762057279096489
20
-73.173811343435474
42
0.99999999999999989
10
13.778903037871807
20
-71.911508789385167
42
-0.34348368842280697
10
9.2318146816114002
20
-71.911508796710265
42
1.0000000105367122
10
8.2486604309817739
20
-73.173811343435474
42
0.34348368932330448
0
CIRCLE
5
108
100
AcDbEntity
8
0
100
AcDbCircle
10
34.82166454967664
20
-131.93435455339633
30
-8.6597395920762235e-14
40
1.3500000000000023
210
-7.7563788291117881e-33
220
-6.6613381477509412e-16
230
1
0
LWPOLYLINE
5
109
100
AcDbEntity
8
0
100
AcDbPolyline
90
29
70
1
43
0.0
10
27.534744309332922
20
-142.16794719776468
42
0.41421356237309975
10
29.906862892436067
20
-140.6274753779326
10
30.566805170200993
20
-137.522691067442
42
-0.26794919243111681
10
31.905066382918275
20
-136.03640141648771
10
35.748715532801512
20
-134.78752410228191
42
0.57735026918962373
10
36.829056368753243
20
-129.70492007696416
10
33.825672313499204
20
-127.00066092703378
42
-0.26794919243112392
10
33.207638324749517
20
-125.0985478944441
10
33.867580602514437
20
-121.99376358395349
42
0.4142135623730997
10
32.327108782682345
20
-119.62164500085035
10
25.010717710078282
20
-118.06649807062442
10
25.010717710078296
20
-73.992434133143249
42
0.41421356237308915
10
23.010717710078296
20
-71.992434133143263
10
17.85473732694356
20
-71.992434133143249
42
-0.26794919243112347
10
16.124898253146867
20
-70.993711078231996
10
14.103435066392457
20
-67.492434133143263
42
0.5773502691896254
10
8.9072826436858215
20
-67.492434133143263
10
6.8858194569314168
20
-70.993711078231996
42
-0.26794919243112941
10
5.1559803831347217
20
-71.992434133143249
10
-1.2212453270876722e-14
20
-71.992434133143249
42
0.41421356237309198
10
-2.0000000000000111
20
-73.992434133143249
10
-2.0000000000000155
20
-117.11914549571108
42
-0.26794919243111881
10
-2.9999999999507656
20
-118.85119630319466
10
-6.5000009547869126
20
-120.8719227966332
42
0.57735026918961929
10
-6.5000009547869126
20
-126.06807411684682
10
-2.9999999999507674
20
-128.08880061028538
42
-0.26794919243112264
10
-2.0000000000000249
20
-129.82085141776895
10
-2.0000000000000218
20
-134.27057543117957
42
0.3541185725306954
10
-0.41582338163554522
20
-136.22687063264718
0
CIRCLE
5
110
100
AcDbEntity
8
0
100
AcDbCircle
10
20.812077511340195
20
-76.191074331881353
30
-5.1070259132757201e-14
40
0.8000000000000006
210
-1.4689726628905841e-32
220
-6.6613381477509402e-16
230
1
0
CIRCLE
5
111
100
AcDbEntity
8
0
100
AcDbCircle
10
26.005722018430465
20
-137.21685228512933
30
-8.8817841970012523e-14
40
0.8000000000000006
210
-1.4689726628905841e-32
220
-6.6613381477509402e-16
230
1
0
CIRCLE
5
112
100
AcDbEntity
8
0
100
AcDbCircle
10
2.1986401987380839
20
-76.191074331881353
30
-5.1070259132757201e-14
40
0.80000000000000016
210
-6.2156348736020022e-33
220
-6.6613381477509412e-16
230
1
0
CIRCLE
5
113
100
AcDbEntity
8
0
100
AcDbCircle
10
2.9947997111676594
20
-132.3257297586415
30
-8.659739592076221e-14
40
0.80000000000000016
210
-6.2156348736020022e-33
220
-6.6613381477509412e-16
230
1
0
ENDSEC
0
SECTION
2
OBJECTS
0
DICTIONARY
5
C
100
AcDbDictionary
3
ACAD_GROUP
350
D
3
ACAD_MLINESTYLE
350
17
0
DICTIONARY
5
D
100
AcDbDictionary
0
DICTIONARY
5
1A
330
C
100
AcDbDictionary
0
DICTIONARY
5
17
100
AcDbDictionary
0
ENDSEC
0
EOF
