G04*
G04 #@! TF.GenerationSoftware,Altium Limited,Altium Designer,24.5.2 (23)*
G04*
G04 Layer_Color=128*
%FSLAX25Y25*%
%MOIN*%
G70*
G04*
G04 #@! TF.SameCoordinates,87A35CE2-BDC3-414A-9125-E1BB11FDB5FC*
G04*
G04*
G04 #@! TF.FilePolarity,Positive*
G04*
G01*
G75*
%ADD16R,0.02000X0.02200*%
%ADD17R,0.04724X0.04724*%
%ADD18R,0.11811X0.06299*%
%ADD19R,0.23622X0.03937*%
%ADD20P,0.14476X4X123.0*%
%ADD21R,0.10236X0.10236*%
%ADD22P,0.14476X4X147.0*%
%ADD23R,0.10236X0.10236*%
%ADD24R,0.04921X0.01181*%
%ADD25R,0.09843X0.07874*%
%ADD26P,0.06681X4X180.0*%
D16*
X534527Y300394D02*
D03*
X530827D02*
D03*
Y303937D02*
D03*
X534527D02*
D03*
D17*
X555512Y99606D02*
D03*
Y87008D02*
D03*
X531890Y99606D02*
D03*
Y87008D02*
D03*
X452362Y99606D02*
D03*
Y87008D02*
D03*
D18*
X296063Y141557D02*
D03*
Y99037D02*
D03*
X366307D02*
D03*
Y141557D02*
D03*
D19*
X285433Y132108D02*
D03*
Y124234D02*
D03*
Y108486D02*
D03*
Y116360D02*
D03*
X376937Y108486D02*
D03*
Y116360D02*
D03*
Y132108D02*
D03*
Y124234D02*
D03*
D20*
X594797Y165737D02*
D03*
X593078Y109552D02*
D03*
D21*
X502763Y158763D02*
D03*
X512763Y103448D02*
D03*
D22*
X414191Y151555D02*
D03*
X435473Y99528D02*
D03*
D23*
X231831Y178750D02*
D03*
X287146Y188750D02*
D03*
X156831Y122500D02*
D03*
X212146Y132500D02*
D03*
X81831Y122500D02*
D03*
X137146Y132500D02*
D03*
X456831Y244375D02*
D03*
X512146Y254375D02*
D03*
X381831Y253750D02*
D03*
X437146Y263750D02*
D03*
X306831Y263125D02*
D03*
X362146Y273125D02*
D03*
X231831Y253750D02*
D03*
X287146Y263750D02*
D03*
X156831Y197500D02*
D03*
X212146Y207500D02*
D03*
X81831Y197500D02*
D03*
X137146Y207500D02*
D03*
X456831Y319375D02*
D03*
X512146Y329375D02*
D03*
X381831Y328750D02*
D03*
X437146Y338750D02*
D03*
X306831Y338125D02*
D03*
X362146Y348125D02*
D03*
X231831Y328750D02*
D03*
X287146Y338750D02*
D03*
X156831Y272500D02*
D03*
X212146Y282500D02*
D03*
X81831Y272500D02*
D03*
X137146Y282500D02*
D03*
X456831Y394375D02*
D03*
X512146Y404375D02*
D03*
X381831Y403750D02*
D03*
X437146Y413750D02*
D03*
X306831Y413125D02*
D03*
X362146Y423125D02*
D03*
X231831Y403750D02*
D03*
X287146Y413750D02*
D03*
X156831Y347500D02*
D03*
X212146Y357500D02*
D03*
X81831Y347500D02*
D03*
X137146Y357500D02*
D03*
D24*
X528937Y375417D02*
D03*
Y373449D02*
D03*
Y371480D02*
D03*
Y369512D02*
D03*
Y367543D02*
D03*
Y365575D02*
D03*
Y363606D02*
D03*
Y361638D02*
D03*
Y359669D02*
D03*
Y357701D02*
D03*
Y355732D02*
D03*
Y353764D02*
D03*
Y351795D02*
D03*
Y349827D02*
D03*
Y347858D02*
D03*
Y345890D02*
D03*
Y343921D02*
D03*
Y341953D02*
D03*
Y339984D02*
D03*
Y338016D02*
D03*
Y336047D02*
D03*
Y334079D02*
D03*
Y332110D02*
D03*
Y330142D02*
D03*
Y328173D02*
D03*
Y326205D02*
D03*
Y324236D02*
D03*
Y322268D02*
D03*
Y320299D02*
D03*
Y318331D02*
D03*
D25*
X539075Y311677D02*
D03*
Y382071D02*
D03*
D26*
X239296Y154454D02*
D03*
X248204Y145546D02*
D03*
X164296Y98204D02*
D03*
X173204Y89296D02*
D03*
X89296Y98204D02*
D03*
X98204Y89296D02*
D03*
X464296Y220079D02*
D03*
X473204Y211171D02*
D03*
X389296Y229454D02*
D03*
X398204Y220546D02*
D03*
X314296Y238829D02*
D03*
X323204Y229921D02*
D03*
X239296Y229454D02*
D03*
X248204Y220546D02*
D03*
X164296Y173204D02*
D03*
X173204Y164296D02*
D03*
X89296Y173204D02*
D03*
X98204Y164296D02*
D03*
X464296Y295079D02*
D03*
X473204Y286171D02*
D03*
X389296Y304454D02*
D03*
X398204Y295546D02*
D03*
X314296Y313829D02*
D03*
X323204Y304921D02*
D03*
X239296Y304454D02*
D03*
X248204Y295546D02*
D03*
X164296Y248204D02*
D03*
X173204Y239296D02*
D03*
X89296Y248204D02*
D03*
X98204Y239296D02*
D03*
X464296Y370079D02*
D03*
X473204Y361171D02*
D03*
X389296Y379454D02*
D03*
X398204Y370546D02*
D03*
X314296Y388829D02*
D03*
X323204Y379921D02*
D03*
X239296Y379454D02*
D03*
X248204Y370546D02*
D03*
X164296Y323204D02*
D03*
X173204Y314296D02*
D03*
X89296Y323204D02*
D03*
X98204Y314296D02*
D03*
M02*
