G04*
G04 #@! TF.GenerationSoftware,Altium Limited,Altium Designer,24.5.2 (23)*
G04*
G04 Layer_Physical_Order=2*
G04 Layer_Color=16711680*
%FSLAX25Y25*%
%MOIN*%
G70*
G04*
G04 #@! TF.SameCoordinates,87A35CE2-BDC3-414A-9125-E1BB11FDB5FC*
G04*
G04*
G04 #@! TF.FilePolarity,Positive*
G04*
G01*
G75*
%ADD11C,0.01000*%
%ADD13C,0.02000*%
%ADD16R,0.02000X0.02200*%
%ADD17R,0.04724X0.04724*%
%ADD18R,0.11811X0.06299*%
%ADD19R,0.23622X0.03937*%
%ADD20P,0.14476X4X123.0*%
%ADD21R,0.10236X0.10236*%
%ADD22P,0.14476X4X147.0*%
%ADD23R,0.10236X0.10236*%
%ADD24R,0.04921X0.01181*%
%ADD25R,0.09843X0.07874*%
%ADD26P,0.06681X4X180.0*%
%ADD35C,0.01968*%
G36*
X539575Y377134D02*
X544095D01*
Y316614D01*
X539575D01*
Y311677D01*
X538575D01*
Y316614D01*
X534846D01*
X534539Y317014D01*
X534600Y317323D01*
Y319685D01*
X534484Y320270D01*
X534152Y320766D01*
X533858Y321060D01*
Y321654D01*
X533130D01*
X533042Y321712D01*
X532457Y321829D01*
X532398D01*
Y324614D01*
Y325827D01*
X528937D01*
Y326583D01*
X532398D01*
Y328551D01*
Y332488D01*
Y336425D01*
Y340423D01*
X533905D01*
X534490Y340181D01*
X535195D01*
X535846Y340451D01*
X536344Y340949D01*
X536614Y341600D01*
Y342305D01*
X536344Y342956D01*
X535846Y343455D01*
X535195Y343724D01*
Y344118D01*
X535846Y344388D01*
X536344Y344886D01*
X536614Y345537D01*
Y346242D01*
X536344Y346893D01*
X535846Y347392D01*
X535195Y347661D01*
X534490D01*
X533905Y347419D01*
X532398D01*
Y350205D01*
Y353386D01*
X528937D01*
Y354141D01*
X532398D01*
Y354142D01*
Y358079D01*
Y362077D01*
X533905D01*
X534490Y361835D01*
X535195D01*
X535846Y362104D01*
X536344Y362603D01*
X536614Y363254D01*
Y363959D01*
X536344Y364610D01*
X535846Y365108D01*
X535195Y365378D01*
X534490D01*
X533905Y365136D01*
X532398D01*
Y367166D01*
X528937D01*
Y367921D01*
X532398D01*
Y369951D01*
X533905D01*
X534490Y369709D01*
X535195D01*
X535846Y369978D01*
X536344Y370477D01*
X536614Y371128D01*
Y371833D01*
X536372Y372418D01*
Y375000D01*
X536256Y375585D01*
X535924Y376081D01*
X535241Y376764D01*
X535394Y377134D01*
X538575D01*
Y382071D01*
X539575D01*
Y377134D01*
D02*
G37*
D11*
X533244Y339984D02*
X534646Y338583D01*
X528937Y339984D02*
X533244D01*
X536221Y297638D02*
X539075Y300492D01*
Y311677D01*
X530827Y298307D02*
X531496Y297638D01*
X536221D01*
X530827Y298307D02*
Y300394D01*
X534527D02*
Y303937D01*
X531890Y306674D02*
X534527Y304037D01*
Y303937D02*
Y304037D01*
X531890Y306674D02*
Y316142D01*
X533071Y317323D01*
Y319685D01*
X532457Y320299D02*
X533071Y319685D01*
X528937Y320299D02*
X532457D01*
X528937Y305927D02*
Y318331D01*
Y305927D02*
X530827Y304037D01*
Y303937D02*
Y304037D01*
X376936Y108487D02*
X376937Y108486D01*
X523228Y335039D02*
Y338803D01*
X526378Y341953D01*
X529528Y380315D02*
X534842Y375000D01*
X512992Y341339D02*
X517717D01*
X518331Y341953D02*
X523032D01*
X526378D02*
X528937D01*
X523032D02*
X525000Y343921D01*
X517717Y341339D02*
X518331Y341953D01*
X528937Y345890D02*
X534842D01*
X524293D02*
X528937D01*
X523285Y344882D02*
X524293Y345890D01*
X512992Y344882D02*
X523285D01*
X525000Y343921D02*
X528937D01*
X523032Y347858D02*
X528937D01*
X285433Y132108D02*
X285435Y132106D01*
X523228Y381102D02*
Y387771D01*
X520079Y368528D02*
Y377953D01*
X523228Y381102D01*
X523228Y387772D02*
X523228Y387771D01*
X520079Y368528D02*
X523032Y365575D01*
Y371260D02*
Y376969D01*
X526378Y380315D02*
Y387795D01*
X523032Y376969D02*
X526378Y380315D01*
X529528D02*
Y387819D01*
X534842Y371480D02*
Y375000D01*
X523032Y371260D02*
X523049D01*
X524797Y369512D01*
X523285Y362598D02*
X524293Y363606D01*
X528937D01*
X513386Y362598D02*
X523285D01*
X524797Y361638D02*
X528937D01*
X523049Y359890D02*
X524797Y361638D01*
X523032Y359890D02*
X523049D01*
X513386Y359842D02*
X513433Y359890D01*
X523032D01*
Y365575D02*
X528937D01*
X524797Y369512D02*
X528937D01*
Y371480D02*
X534842D01*
X528937Y363606D02*
X534842D01*
X528937Y341953D02*
X534842D01*
X523032Y351795D02*
X528937D01*
D13*
X565458Y109552D02*
X602891D01*
X555512Y99606D02*
X565458Y109552D01*
X522577Y103448D02*
X528048D01*
X531890Y99606D01*
X445287Y99528D02*
X452284D01*
X499715Y161811D02*
X502763Y158763D01*
X393701Y146063D02*
X409449Y161811D01*
X499715D01*
X555512Y77400D02*
X555512Y77400D01*
X555512Y77400D02*
Y87008D01*
X531890Y77400D02*
X531890Y77400D01*
X531890Y77400D02*
Y87008D01*
X452362Y77400D02*
X452363Y77400D01*
X452362Y77400D02*
Y87008D01*
X502763Y158763D02*
X516418D01*
X522441Y152740D01*
X512763Y103448D02*
X522577D01*
X435473Y99528D02*
X445287D01*
X605168Y165737D02*
X613139Y157766D01*
X594797Y165737D02*
X605168D01*
X393701Y125591D02*
Y146063D01*
X379134Y197244D02*
X507874D01*
X523228Y212598D01*
X368504Y207874D02*
X379134Y197244D01*
X392344Y124234D02*
X393701Y125591D01*
X376937Y124234D02*
X392344D01*
X398425Y142913D02*
X407067Y151555D01*
X392738Y116360D02*
X398425Y122047D01*
Y142913D01*
X414191Y151555D02*
X431228D01*
X407067D02*
X414191D01*
X376937Y116360D02*
X392738D01*
X431228Y151555D02*
X435040Y147744D01*
X357252Y108487D02*
X376936D01*
X357252Y116361D02*
X376936D01*
X357252Y124235D02*
X376936D01*
X357252Y132109D02*
X376936D01*
X285435Y108484D02*
X305118D01*
X357087Y197244D02*
X364173Y204331D01*
X312205Y197244D02*
X357087D01*
X355512Y200787D02*
X362598Y207874D01*
X310236Y200787D02*
X355512D01*
X362598Y207874D02*
X368504D01*
X301181Y164173D02*
Y191732D01*
X282554Y145546D02*
X301181Y164173D01*
Y191732D02*
X310236Y200787D01*
X248204Y145546D02*
X282554D01*
X294882Y152362D02*
X305118Y162598D01*
Y190157D01*
X172971Y154688D02*
X173204D01*
X523228Y212598D02*
Y335039D01*
X512145Y254376D02*
X512146Y254375D01*
Y329375D02*
X520137D01*
X512145Y329376D02*
X512146Y329375D01*
Y254375D02*
X520137D01*
X137145Y357501D02*
X137146Y357500D01*
X461024Y341339D02*
X512992D01*
X513165Y347858D02*
X523032D01*
X305118Y190157D02*
X312205Y197244D01*
X285435Y116358D02*
X305118D01*
X285435Y124232D02*
X305118D01*
X285435Y132106D02*
X305118D01*
X220137Y357500D02*
Y416200D01*
X245669Y441732D02*
X523228D01*
X220137Y416200D02*
X245669Y441732D01*
X295137Y413750D02*
Y416790D01*
X316929Y438583D02*
X522047D01*
X526378Y387795D02*
Y438583D01*
X287145Y413751D02*
X287146Y413750D01*
X522047Y438583D02*
X523228Y437402D01*
X523228Y441732D02*
X526378Y438583D01*
X295137Y416790D02*
X316929Y438583D01*
X523228Y387772D02*
Y437402D01*
X174016Y444882D02*
X524409D01*
X529528Y387819D02*
Y439764D01*
X524409Y444882D02*
X529528Y439764D01*
X145137Y416003D02*
X174016Y444882D01*
X145137Y357500D02*
Y416003D01*
X465748Y364961D02*
X470079Y369291D01*
X459842Y364961D02*
X465748D01*
X470079Y369291D02*
X506693D01*
X511417Y359842D02*
X513386D01*
X471654Y366142D02*
X505118D01*
X511417Y359842D01*
X443169Y364567D02*
X455512D01*
X457874Y362205D01*
X467717D01*
X446457Y378346D02*
X459842Y364961D01*
X396850Y378346D02*
X446457D01*
X467717Y362205D02*
X471654Y366142D01*
X391339Y372835D02*
X396850Y378346D01*
X368169Y372835D02*
X391339D01*
X353441Y370312D02*
X362816Y360938D01*
X323205Y370312D02*
X353441D01*
X506693Y369291D02*
X513386Y362598D01*
X437145Y338751D02*
X437146Y338750D01*
X445137D01*
X448819Y329134D02*
X461024Y341339D01*
X448819Y283465D02*
Y329134D01*
X445276Y330709D02*
X459449Y344882D01*
X445276Y276562D02*
X473438D01*
X459449Y344882D02*
X512992D01*
X445276Y276562D02*
Y330709D01*
X173204Y154688D02*
X191721D01*
X448819Y283465D02*
X451181Y281102D01*
X442969Y213281D02*
Y247300D01*
Y213281D02*
X457031D01*
X442969Y247300D02*
X451181Y255512D01*
Y271654D01*
X438049Y276562D02*
X445276D01*
X509461Y351562D02*
X513165Y347858D01*
X473205Y351562D02*
X509461D01*
X398205Y210938D02*
X440625D01*
X442969Y213281D01*
X468750Y201562D02*
X473205D01*
X457031Y213281D02*
X468750Y201562D01*
X464062Y351562D02*
X473205D01*
X454688Y360938D02*
X464062Y351562D01*
X398205Y360938D02*
X454688D01*
X398438Y285937D02*
X428674D01*
X438049Y276562D01*
X248204Y210938D02*
X283593D01*
X292968Y220313D01*
X323204D01*
X353440D01*
X362815Y210938D01*
X398204D01*
X248205Y285938D02*
X283594D01*
X292969Y295312D01*
X323205D01*
X353441D01*
X362816Y285938D01*
X398205D01*
X362816Y360938D02*
X398205D01*
X292969Y370312D02*
X323205D01*
X283594Y360938D02*
X292969Y370312D01*
X248205Y360938D02*
X283594D01*
X191721Y154688D02*
X247971Y210938D01*
X191722Y229688D02*
X247972Y285938D01*
X473204Y276563D02*
X473205Y276562D01*
X473204Y276563D02*
Y286171D01*
X398204Y285938D02*
X398205Y285938D01*
X398204Y285938D02*
Y295546D01*
X323204Y295313D02*
X323205Y295312D01*
X323204Y295313D02*
Y304921D01*
X248204Y285938D02*
X248205Y285938D01*
X248204Y285938D02*
Y295546D01*
X173205Y304688D02*
X191955D01*
X248205Y360938D01*
Y135872D02*
X275590Y108486D01*
X285433D01*
X248205Y135872D02*
Y135938D01*
X191955Y79688D02*
X248205Y135938D01*
X173205Y79688D02*
X191955D01*
X161719Y154688D02*
X173205D01*
X157031Y159375D02*
X161719Y154688D01*
X142969Y159375D02*
X157031D01*
X98205Y154688D02*
X138281D01*
X142969Y159375D01*
X98205Y79687D02*
X173205D01*
X98205Y229688D02*
X191722D01*
X98205Y304688D02*
X173205D01*
X173204Y79688D02*
Y89296D01*
Y79688D02*
X173205Y79688D01*
X98204Y79688D02*
Y89296D01*
Y79688D02*
X98205Y79688D01*
X248204Y135938D02*
Y145546D01*
Y135938D02*
X248205Y135938D01*
X173204Y154688D02*
Y164296D01*
Y154688D02*
X173205Y154688D01*
X98204Y154688D02*
Y164296D01*
Y154688D02*
X98205Y154688D01*
X473204Y201563D02*
Y211171D01*
Y201563D02*
X473205Y201562D01*
X398204Y210938D02*
Y220546D01*
Y210938D02*
X398205Y210938D01*
X323204Y220313D02*
Y229921D01*
Y220313D02*
X323205Y220312D01*
X248204Y210938D02*
Y220546D01*
Y210938D02*
X248205Y210938D01*
X173204Y229688D02*
Y239296D01*
Y229688D02*
X173205Y229688D01*
X98204Y229688D02*
Y239296D01*
Y229688D02*
X98205Y229688D01*
X98204Y304688D02*
Y314296D01*
Y304688D02*
X98205Y304688D01*
X173204Y304688D02*
Y314296D01*
Y304688D02*
X173205Y304688D01*
X473204Y351563D02*
Y361171D01*
Y351563D02*
X473205Y351562D01*
X398204Y360938D02*
Y370546D01*
Y360938D02*
X398205Y360938D01*
X323204Y370313D02*
Y379921D01*
Y370313D02*
X323205Y370312D01*
X248204Y360938D02*
X248205Y360938D01*
X248204Y360938D02*
Y370546D01*
X156831Y105669D02*
Y112499D01*
Y105669D02*
X164296Y98204D01*
X81831Y105669D02*
Y112499D01*
Y105669D02*
X89296Y98204D01*
X81831Y180669D02*
Y187499D01*
Y180669D02*
X89296Y173204D01*
X231831Y161919D02*
Y168749D01*
Y161919D02*
X239296Y154454D01*
X156831Y180669D02*
Y187499D01*
Y180669D02*
X164296Y173204D01*
X306831Y321294D02*
Y328124D01*
Y321294D02*
X314296Y313829D01*
X381831Y311919D02*
Y318749D01*
Y311919D02*
X389296Y304454D01*
X456831Y302544D02*
Y309374D01*
Y302544D02*
X464296Y295079D01*
X456831Y227544D02*
X464296Y220079D01*
X456831Y227544D02*
Y234374D01*
X381831Y236919D02*
X389296Y229454D01*
X381831Y236919D02*
Y243749D01*
X306831Y246294D02*
X314296Y238829D01*
X306831Y246294D02*
Y253124D01*
X231831Y311919D02*
Y318749D01*
Y311919D02*
X239296Y304454D01*
X231831Y236919D02*
Y243749D01*
Y236919D02*
X239296Y229454D01*
X156831Y255669D02*
Y262499D01*
Y255669D02*
X164296Y248204D01*
X81831Y255669D02*
Y262499D01*
Y255669D02*
X89296Y248204D01*
X456831Y377544D02*
Y384374D01*
X464296Y370079D02*
Y370079D01*
X456831Y377544D02*
X464296Y370079D01*
X381831Y386919D02*
Y393749D01*
X389296Y379454D02*
Y379454D01*
X381831Y386919D02*
X389296Y379454D01*
X306831Y396294D02*
Y403124D01*
X314296Y388829D02*
Y388829D01*
X306831Y396294D02*
X314296Y388829D01*
X231831Y386919D02*
Y393749D01*
X239296Y379454D02*
Y379454D01*
X231831Y386919D02*
X239296Y379454D01*
X156831Y330669D02*
Y337499D01*
X164296Y323204D02*
Y323204D01*
X156831Y330669D02*
X164296Y323204D01*
X81831Y330669D02*
X89296Y323204D01*
Y323204D02*
Y323204D01*
X81831Y330669D02*
Y337499D01*
Y112499D02*
Y122500D01*
X156831Y112499D02*
Y122500D01*
X231831Y168749D02*
Y178750D01*
X156831Y187499D02*
Y197500D01*
X81831Y187499D02*
Y197500D01*
X381831Y318749D02*
Y328750D01*
X456831Y309374D02*
Y319375D01*
Y234374D02*
Y244375D01*
X381831Y243749D02*
Y253750D01*
X306831Y253124D02*
Y263125D01*
Y328124D02*
Y338125D01*
X231831Y318749D02*
Y328750D01*
Y243749D02*
Y253750D01*
X156831Y262499D02*
Y272500D01*
X81831Y262499D02*
Y272500D01*
Y337499D02*
Y347500D01*
X156831Y337499D02*
Y347500D01*
X231831Y393749D02*
Y403750D01*
X306831Y403124D02*
Y413125D01*
X381831Y393749D02*
Y403750D01*
X456831Y384374D02*
Y394375D01*
X212147Y132499D02*
X220138D01*
X212146Y132500D02*
X212147Y132499D01*
X137147D02*
X145138D01*
X137146Y132500D02*
X137147Y132499D01*
X287145Y188751D02*
X287146Y188750D01*
X295137D01*
X212145Y207501D02*
X212146Y207500D01*
X220137D01*
X137145Y207501D02*
X137146Y207500D01*
X145137D01*
X137145Y282501D02*
X137146Y282500D01*
X145137D01*
X212145Y282501D02*
X212146Y282500D01*
X220137D01*
X287145Y263751D02*
X287146Y263750D01*
X295137D01*
X362145Y273126D02*
X362146Y273125D01*
X370137D01*
X437145Y263751D02*
X437146Y263750D01*
X445137D01*
X362145Y348126D02*
X362146Y348125D01*
X370137D01*
X287145Y338751D02*
X287146Y338750D01*
X295137D01*
X212145Y357501D02*
X212146Y357500D01*
X220137D01*
X137146D02*
X145137D01*
X287146Y413750D02*
X295137D01*
X362145Y423126D02*
X362146Y423125D01*
X370137D01*
X437145Y413751D02*
X437146Y413750D01*
X445137D01*
X512147Y404374D02*
X520138D01*
X512146Y404375D02*
X512147Y404374D01*
D16*
X534527Y300394D02*
D03*
X530827D02*
D03*
Y303937D02*
D03*
X534527D02*
D03*
D17*
X555512Y99606D02*
D03*
Y87008D02*
D03*
X531890Y99606D02*
D03*
Y87008D02*
D03*
X452362Y99606D02*
D03*
Y87008D02*
D03*
D18*
X296063Y141557D02*
D03*
Y99037D02*
D03*
X366307D02*
D03*
Y141557D02*
D03*
D19*
X285433Y132108D02*
D03*
Y124234D02*
D03*
Y108486D02*
D03*
Y116360D02*
D03*
X376937Y108486D02*
D03*
Y116360D02*
D03*
Y132108D02*
D03*
Y124234D02*
D03*
D20*
X594797Y165737D02*
D03*
X593078Y109552D02*
D03*
D21*
X502763Y158763D02*
D03*
X512763Y103448D02*
D03*
D22*
X414191Y151555D02*
D03*
X435473Y99528D02*
D03*
D23*
X231831Y178750D02*
D03*
X287146Y188750D02*
D03*
X156831Y122500D02*
D03*
X212146Y132500D02*
D03*
X81831Y122500D02*
D03*
X137146Y132500D02*
D03*
X456831Y244375D02*
D03*
X512146Y254375D02*
D03*
X381831Y253750D02*
D03*
X437146Y263750D02*
D03*
X306831Y263125D02*
D03*
X362146Y273125D02*
D03*
X231831Y253750D02*
D03*
X287146Y263750D02*
D03*
X156831Y197500D02*
D03*
X212146Y207500D02*
D03*
X81831Y197500D02*
D03*
X137146Y207500D02*
D03*
X456831Y319375D02*
D03*
X512146Y329375D02*
D03*
X381831Y328750D02*
D03*
X437146Y338750D02*
D03*
X306831Y338125D02*
D03*
X362146Y348125D02*
D03*
X231831Y328750D02*
D03*
X287146Y338750D02*
D03*
X156831Y272500D02*
D03*
X212146Y282500D02*
D03*
X81831Y272500D02*
D03*
X137146Y282500D02*
D03*
X456831Y394375D02*
D03*
X512146Y404375D02*
D03*
X381831Y403750D02*
D03*
X437146Y413750D02*
D03*
X306831Y413125D02*
D03*
X362146Y423125D02*
D03*
X231831Y403750D02*
D03*
X287146Y413750D02*
D03*
X156831Y347500D02*
D03*
X212146Y357500D02*
D03*
X81831Y347500D02*
D03*
X137146Y357500D02*
D03*
D24*
X528937Y375417D02*
D03*
Y373449D02*
D03*
Y371480D02*
D03*
Y369512D02*
D03*
Y367543D02*
D03*
Y365575D02*
D03*
Y363606D02*
D03*
Y361638D02*
D03*
Y359669D02*
D03*
Y357701D02*
D03*
Y355732D02*
D03*
Y353764D02*
D03*
Y351795D02*
D03*
Y349827D02*
D03*
Y347858D02*
D03*
Y345890D02*
D03*
Y343921D02*
D03*
Y341953D02*
D03*
Y339984D02*
D03*
Y338016D02*
D03*
Y336047D02*
D03*
Y334079D02*
D03*
Y332110D02*
D03*
Y330142D02*
D03*
Y328173D02*
D03*
Y326205D02*
D03*
Y324236D02*
D03*
Y322268D02*
D03*
Y320299D02*
D03*
Y318331D02*
D03*
D25*
X539075Y311677D02*
D03*
Y382071D02*
D03*
D26*
X239296Y154454D02*
D03*
X248204Y145546D02*
D03*
X164296Y98204D02*
D03*
X173204Y89296D02*
D03*
X89296Y98204D02*
D03*
X98204Y89296D02*
D03*
X464296Y220079D02*
D03*
X473204Y211171D02*
D03*
X389296Y229454D02*
D03*
X398204Y220546D02*
D03*
X314296Y238829D02*
D03*
X323204Y229921D02*
D03*
X239296Y229454D02*
D03*
X248204Y220546D02*
D03*
X164296Y173204D02*
D03*
X173204Y164296D02*
D03*
X89296Y173204D02*
D03*
X98204Y164296D02*
D03*
X464296Y295079D02*
D03*
X473204Y286171D02*
D03*
X389296Y304454D02*
D03*
X398204Y295546D02*
D03*
X314296Y313829D02*
D03*
X323204Y304921D02*
D03*
X239296Y304454D02*
D03*
X248204Y295546D02*
D03*
X164296Y248204D02*
D03*
X173204Y239296D02*
D03*
X89296Y248204D02*
D03*
X98204Y239296D02*
D03*
X464296Y370079D02*
D03*
X473204Y361171D02*
D03*
X389296Y379454D02*
D03*
X398204Y370546D02*
D03*
X314296Y388829D02*
D03*
X323204Y379921D02*
D03*
X239296Y379454D02*
D03*
X248204Y370546D02*
D03*
X164296Y323204D02*
D03*
X173204Y314296D02*
D03*
X89296Y323204D02*
D03*
X98204Y314296D02*
D03*
D35*
X540748Y338016D02*
D03*
Y330142D02*
D03*
Y322268D02*
D03*
Y355732D02*
D03*
Y363606D02*
D03*
Y371480D02*
D03*
X445287Y99528D02*
D03*
X555512Y77400D02*
D03*
X531890D02*
D03*
X452363D02*
D03*
X522577Y103448D02*
D03*
X602891Y109552D02*
D03*
X613139Y157766D02*
D03*
X522441Y152740D02*
D03*
X435040Y147744D02*
D03*
X357252Y108487D02*
D03*
Y116361D02*
D03*
Y124235D02*
D03*
Y132109D02*
D03*
X305118Y108484D02*
D03*
X364173Y204331D02*
D03*
X473205Y201562D02*
D03*
X520137Y254375D02*
D03*
Y329375D02*
D03*
X523032Y341953D02*
D03*
Y347858D02*
D03*
X294882Y152362D02*
D03*
X305118Y116358D02*
D03*
Y124232D02*
D03*
Y132106D02*
D03*
X523032Y371260D02*
D03*
X368169Y372835D02*
D03*
X523032Y365575D02*
D03*
X445137Y338750D02*
D03*
X443169Y364567D02*
D03*
X523032Y359890D02*
D03*
X451181Y281102D02*
D03*
Y271654D02*
D03*
X534842Y371480D02*
D03*
Y363606D02*
D03*
X523032Y351795D02*
D03*
X534842Y341953D02*
D03*
Y345890D02*
D03*
X473205Y276562D02*
D03*
X398205Y285938D02*
D03*
X323205Y295312D02*
D03*
X248205Y285938D02*
D03*
X173205Y79688D02*
D03*
X98205D02*
D03*
X248205Y135938D02*
D03*
X173205Y154688D02*
D03*
X98205D02*
D03*
X398205Y210938D02*
D03*
X323205Y220312D02*
D03*
X248205Y210938D02*
D03*
X173205Y229688D02*
D03*
X98205D02*
D03*
Y304688D02*
D03*
X173205D02*
D03*
X473205Y351562D02*
D03*
X398205Y360938D02*
D03*
X323205Y370312D02*
D03*
X248205Y360938D02*
D03*
X81831Y112499D02*
D03*
X156831D02*
D03*
X231831Y168749D02*
D03*
X156831Y187499D02*
D03*
X81831D02*
D03*
X381831Y318749D02*
D03*
X456831Y309374D02*
D03*
Y234374D02*
D03*
X381831Y243749D02*
D03*
X306831Y253124D02*
D03*
Y328124D02*
D03*
X231831Y318749D02*
D03*
Y243749D02*
D03*
X156831Y262499D02*
D03*
X81831D02*
D03*
Y337499D02*
D03*
X156831D02*
D03*
X231831Y393749D02*
D03*
X306831Y403124D02*
D03*
X381831Y393749D02*
D03*
X456831Y384374D02*
D03*
X220138Y132499D02*
D03*
X145138D02*
D03*
X295137Y188750D02*
D03*
X220137Y207500D02*
D03*
X145137D02*
D03*
Y282500D02*
D03*
X220137D02*
D03*
X295137Y263750D02*
D03*
X370137Y273125D02*
D03*
X445137Y263750D02*
D03*
X370137Y348125D02*
D03*
X295137Y338750D02*
D03*
X220137Y357500D02*
D03*
X145137D02*
D03*
X295137Y413750D02*
D03*
X370137Y423125D02*
D03*
X445137Y413750D02*
D03*
X520138Y404374D02*
D03*
M02*
