G04*
G04 #@! TF.GenerationSoftware,Altium Limited,Altium Designer,24.5.2 (23)*
G04*
G04 Layer_Physical_Order=1*
G04 Layer_Color=255*
%FSLAX25Y25*%
%MOIN*%
G70*
G04*
G04 #@! TF.SameCoordinates,87A35CE2-BDC3-414A-9125-E1BB11FDB5FC*
G04*
G04*
G04 #@! TF.FilePolarity,Positive*
G04*
G01*
G75*
%ADD11C,0.01000*%
%ADD13C,0.02000*%
%ADD16R,0.02000X0.02200*%
%ADD17R,0.04724X0.04724*%
%ADD18R,0.11811X0.06299*%
%ADD19R,0.23622X0.03937*%
%ADD20P,0.14476X4X123.0*%
%ADD21R,0.10236X0.10236*%
%ADD22P,0.14476X4X147.0*%
%ADD23R,0.10236X0.10236*%
%ADD24R,0.04921X0.01181*%
%ADD25R,0.09843X0.07874*%
%ADD26P,0.06681X4X180.0*%
%ADD35C,0.01968*%
G36*
X539575Y377134D02*
X544095D01*
Y316614D01*
X539575D01*
Y311677D01*
X538575D01*
Y316614D01*
X533858D01*
Y321654D01*
X532398D01*
Y324614D01*
Y325827D01*
X528937D01*
Y326583D01*
X532398D01*
Y328551D01*
Y332488D01*
Y336425D01*
Y340423D01*
X533905D01*
X534490Y340181D01*
X535195D01*
X535846Y340451D01*
X536344Y340949D01*
X536614Y341600D01*
Y342305D01*
X536344Y342956D01*
X535846Y343455D01*
X535195Y343724D01*
Y344118D01*
X535846Y344388D01*
X536344Y344886D01*
X536614Y345537D01*
Y346242D01*
X536344Y346893D01*
X535846Y347392D01*
X535195Y347661D01*
X534490D01*
X533905Y347419D01*
X532398D01*
Y350205D01*
Y353386D01*
X528937D01*
Y354141D01*
X532398D01*
Y354142D01*
Y358079D01*
Y362077D01*
X533905D01*
X534490Y361835D01*
X535195D01*
X535846Y362104D01*
X536344Y362603D01*
X536614Y363254D01*
Y363959D01*
X536344Y364610D01*
X535846Y365108D01*
X535195Y365378D01*
X534490D01*
X533905Y365136D01*
X532398D01*
Y367166D01*
X528937D01*
Y367921D01*
X532398D01*
Y369951D01*
X533905D01*
X534490Y369709D01*
X535195D01*
X535846Y369978D01*
X536344Y370477D01*
X536614Y371128D01*
Y371833D01*
X536344Y372484D01*
X535846Y372982D01*
X535195Y373252D01*
X534490D01*
X534252Y373411D01*
Y377134D01*
X538575D01*
Y382071D01*
X539575D01*
Y377134D01*
D02*
G37*
D11*
X525000Y343921D02*
X528937D01*
X523032Y341953D02*
X525000Y343921D01*
X528937Y339984D02*
X533244D01*
X534646Y338583D01*
X534654Y385508D02*
X538091Y382071D01*
X539075D01*
X534527Y389764D02*
X534654Y389637D01*
Y385508D02*
Y389637D01*
X524409Y374035D02*
Y376772D01*
X530827Y383189D02*
Y389764D01*
X524409Y376772D02*
X530827Y383189D01*
X524995Y373449D02*
X528937D01*
X524409Y374035D02*
X524995Y373449D01*
X452284Y99528D02*
X452362Y99606D01*
X512763Y152739D02*
X512764Y152740D01*
X425225Y147743D02*
X425226Y147744D01*
X376936Y108487D02*
X376937Y108486D01*
X376936Y116361D02*
X376937Y116360D01*
X376936Y124235D02*
X376937Y124234D01*
X523032Y347858D02*
X528937D01*
X285433Y116360D02*
X285435Y116358D01*
X285433Y124234D02*
X285435Y124232D01*
X285433Y132108D02*
X285435Y132106D01*
X523049Y371260D02*
X524797Y369512D01*
X522835Y371260D02*
X522852D01*
X523032Y365575D02*
X528937D01*
X522835Y359890D02*
X522852D01*
X523049D02*
X524797Y361638D01*
X528937D01*
X524797Y369512D02*
X528937D01*
Y371480D02*
X534842D01*
X528937Y363606D02*
X534842D01*
X523032Y351795D02*
X528937D01*
Y341953D02*
X534842D01*
X528937Y345890D02*
X534842D01*
D13*
X603326Y157766D02*
Y158769D01*
X579134Y164567D02*
X597528D01*
X603326Y158769D01*
Y157766D02*
X613139D01*
X576378Y161811D02*
X579134Y164567D01*
X409449Y161811D02*
X576378D01*
X393701Y146063D02*
X409449Y161811D01*
X393701Y94533D02*
X410834Y77400D01*
X452362D01*
X452363Y77400D02*
X531890D01*
X391950Y108489D02*
X393701Y106738D01*
X376937Y108489D02*
X391950D01*
X393701Y94533D02*
Y106738D01*
X531890Y77400D02*
X555512D01*
X555512Y77400D02*
X555512Y77400D01*
X555512Y77400D02*
Y87008D01*
X531890Y77400D02*
X531890Y77400D01*
X531890Y77400D02*
Y87008D01*
X452362Y77400D02*
Y87008D01*
X555512Y99606D02*
X561645Y105739D01*
X582044D01*
X528048Y103448D02*
X531890Y99606D01*
X522577Y103448D02*
X528048D01*
X445287Y99528D02*
X452284D01*
X599078Y105739D02*
X602891Y109552D01*
X582044Y105739D02*
X599078D01*
X502763Y97424D02*
X516553D01*
X522577Y103448D01*
X437316Y91557D02*
X445287Y99528D01*
X426944Y91557D02*
X437316D01*
X393701Y133858D02*
Y146063D01*
X376937Y132108D02*
X391950D01*
X393701Y133858D01*
X512764Y152740D02*
X522441D01*
X425226Y147744D02*
X435040D01*
X357252Y108487D02*
X376936D01*
X357252Y116361D02*
X376936D01*
X357252Y124235D02*
X376936D01*
X357252Y132109D02*
X376936D01*
X285435Y108484D02*
X305118D01*
X364173Y204331D02*
X368169Y208327D01*
Y263125D01*
X473204Y201563D02*
Y211171D01*
Y201563D02*
X473205Y201562D01*
X271436Y116360D02*
X285433D01*
X265748Y122047D02*
Y140551D01*
Y122047D02*
X271436Y116360D01*
X265748Y140551D02*
X277559Y152362D01*
X294882D01*
X443169Y213248D02*
Y253750D01*
X430709Y200787D02*
X443169Y213248D01*
X310236Y200787D02*
X430709D01*
X312205Y197244D02*
X507874D01*
X301181Y191732D02*
X310236Y200787D01*
X293169Y190717D02*
Y253750D01*
X305118Y190157D02*
X312205Y197244D01*
X305118Y132106D02*
Y190157D01*
X301181Y153150D02*
Y191732D01*
X296457Y148425D02*
X301181Y153150D01*
X279528Y148425D02*
X296457D01*
X269685Y138583D02*
X279528Y148425D01*
X269685Y125984D02*
Y138583D01*
X271436Y124234D02*
X285433D01*
X269685Y125984D02*
X271436Y124234D01*
X285435Y116358D02*
X305118D01*
X285435Y124232D02*
X305118D01*
X285435Y132106D02*
X305118D01*
X507874Y197244D02*
X518169Y207539D01*
Y244375D01*
X218345Y135561D02*
Y198594D01*
X368169Y372835D02*
Y413125D01*
Y350093D02*
Y372835D01*
X443169Y364567D02*
Y403750D01*
Y340718D02*
Y364567D01*
X443168Y336782D02*
X445137Y338750D01*
X443168Y328751D02*
Y336782D01*
X443169Y340718D02*
X445137Y338750D01*
X451181Y271654D02*
Y281102D01*
X518169Y351575D02*
Y394375D01*
Y331343D02*
Y351575D01*
Y331343D02*
X520137Y329375D01*
X518390Y351795D02*
X523032D01*
X518169Y351575D02*
X518390Y351795D01*
X518169Y256343D02*
Y319375D01*
Y256343D02*
X520137Y254375D01*
X443169Y265718D02*
Y328750D01*
Y265718D02*
X445137Y263750D01*
X368169Y350093D02*
X370137Y348125D01*
X368169Y275093D02*
Y338125D01*
Y275093D02*
X370137Y273125D01*
X293169Y190717D02*
X295137Y188750D01*
X293169Y265718D02*
Y328750D01*
Y265718D02*
X295137Y263750D01*
X293169Y340718D02*
Y403750D01*
Y340718D02*
X295137Y338750D01*
X218169Y284468D02*
Y347500D01*
Y284468D02*
X220137Y282500D01*
X218169Y209468D02*
Y272500D01*
Y209468D02*
X220137Y207500D01*
X218345Y135561D02*
X220312Y133594D01*
X143170Y134467D02*
Y197499D01*
Y134467D02*
X145138Y132499D01*
X143169Y209468D02*
Y272500D01*
Y209468D02*
X145137Y207500D01*
X143169Y284468D02*
X145137Y282500D01*
X143169Y284468D02*
Y347500D01*
X156831Y126476D02*
X162854Y132500D01*
X156831Y112499D02*
Y126476D01*
X473204Y276563D02*
Y286171D01*
Y276563D02*
X473205Y276562D01*
X398204Y285938D02*
Y295546D01*
Y285938D02*
X398205Y285938D01*
X323204Y295313D02*
Y304921D01*
Y295313D02*
X323205Y295312D01*
X248204Y285938D02*
Y295546D01*
Y285938D02*
X248205Y285938D01*
X173204Y79688D02*
X173205Y79688D01*
X173204Y79688D02*
Y89296D01*
X98204Y79688D02*
X98205Y79688D01*
X98204Y79688D02*
Y89296D01*
X248204Y135938D02*
X248205Y135938D01*
X248204Y135938D02*
Y145546D01*
X173204Y154688D02*
X173205Y154688D01*
X173204Y154688D02*
Y164296D01*
X98204Y154688D02*
X98205Y154688D01*
X98204Y154688D02*
Y164296D01*
X398204Y210938D02*
X398205Y210938D01*
X398204Y210938D02*
Y220546D01*
X323204Y220313D02*
X323205Y220312D01*
X323204Y220313D02*
Y229921D01*
X248204Y210938D02*
X248205Y210938D01*
X248204Y210938D02*
Y220546D01*
X173204Y229688D02*
X173205Y229688D01*
X173204Y229688D02*
Y239296D01*
X98204Y229688D02*
X98205Y229688D01*
X98204Y229688D02*
Y239296D01*
Y304688D02*
X98205Y304688D01*
X98204Y304688D02*
Y314296D01*
X173204Y304688D02*
X173205Y304688D01*
X173204Y304688D02*
Y314296D01*
X473204Y351563D02*
X473205Y351562D01*
X473204Y351563D02*
Y361171D01*
X398204Y360938D02*
X398205Y360938D01*
X398204Y360938D02*
Y370546D01*
X323204Y370313D02*
X323205Y370312D01*
X323204Y370313D02*
Y379921D01*
X248204Y360938D02*
Y370546D01*
Y360938D02*
X248205Y360938D01*
X156831Y105669D02*
Y112499D01*
Y105669D02*
X164296Y98204D01*
X81831Y105669D02*
Y112499D01*
Y105669D02*
X89296Y98204D01*
X81831Y180669D02*
Y187499D01*
Y180669D02*
X89296Y173204D01*
X231831Y161919D02*
Y168749D01*
Y161919D02*
X239296Y154454D01*
X156831Y180669D02*
Y187499D01*
Y180669D02*
X164296Y173204D01*
X306831Y321294D02*
Y328124D01*
Y321294D02*
X314296Y313829D01*
X381831Y311919D02*
Y318749D01*
Y311919D02*
X389296Y304454D01*
X456831Y302544D02*
Y309374D01*
Y302544D02*
X464296Y295079D01*
X456831Y227544D02*
X464296Y220079D01*
X456831Y227544D02*
Y234374D01*
X381831Y236919D02*
X389296Y229454D01*
X381831Y236919D02*
Y243749D01*
X306831Y246294D02*
X314296Y238829D01*
X306831Y246294D02*
Y253124D01*
X231831Y311919D02*
Y318749D01*
Y311919D02*
X239296Y304454D01*
X231831Y236919D02*
Y243749D01*
Y236919D02*
X239296Y229454D01*
X156831Y255669D02*
Y262499D01*
Y255669D02*
X164296Y248204D01*
X81831Y255669D02*
Y262499D01*
Y255669D02*
X89296Y248204D01*
X456831Y377544D02*
Y384374D01*
X464296Y370079D02*
Y370079D01*
X456831Y377544D02*
X464296Y370079D01*
X381831Y386919D02*
Y393749D01*
X389296Y379454D02*
Y379454D01*
X381831Y386919D02*
X389296Y379454D01*
X306831Y396294D02*
Y403124D01*
X314296Y388829D02*
Y388829D01*
X306831Y396294D02*
X314296Y388829D01*
X231831Y386919D02*
Y393749D01*
X239296Y379454D02*
Y379454D01*
X231831Y386919D02*
X239296Y379454D01*
X156831Y330669D02*
Y337499D01*
X164296Y323204D02*
Y323204D01*
X156831Y330669D02*
X164296Y323204D01*
X81831Y330669D02*
X89296Y323204D01*
Y323204D02*
Y323204D01*
X81831Y330669D02*
Y337499D01*
Y126476D02*
X87854Y132500D01*
X81831Y112499D02*
Y126476D01*
X231831Y182726D02*
X237854Y188750D01*
X231831Y168749D02*
Y182726D01*
X156831Y201476D02*
X162854Y207500D01*
X156831Y187499D02*
Y201476D01*
X81831D02*
X87854Y207500D01*
X81831Y187499D02*
Y201476D01*
X381831Y332726D02*
X387854Y338750D01*
X381831Y318749D02*
Y332726D01*
X456831Y323351D02*
X462854Y329375D01*
X456831Y309374D02*
Y323351D01*
Y248351D02*
X462854Y254375D01*
X456831Y234374D02*
Y248351D01*
X381831Y257726D02*
X387854Y263750D01*
X381831Y243749D02*
Y257726D01*
X306831Y267101D02*
X312854Y273125D01*
X306831Y253124D02*
Y267101D01*
Y342101D02*
X312854Y348125D01*
X306831Y328124D02*
Y342101D01*
X231831Y332726D02*
X237854Y338750D01*
X231831Y318749D02*
Y332726D01*
Y257726D02*
X237854Y263750D01*
X231831Y243749D02*
Y257726D01*
X156831Y276476D02*
X162854Y282500D01*
X156831Y262499D02*
Y276476D01*
X81831D02*
X87854Y282500D01*
X81831Y262499D02*
Y276476D01*
Y351476D02*
X87854Y357500D01*
X81831Y337499D02*
Y351476D01*
X156831D02*
X162854Y357500D01*
X156831Y337499D02*
Y351476D01*
X231831Y407726D02*
X237854Y413750D01*
X231831Y393749D02*
Y407726D01*
X306831Y417101D02*
X312854Y423125D01*
X306831Y403124D02*
Y417101D01*
X381831Y407726D02*
X387854Y413750D01*
X381831Y393749D02*
Y407726D01*
X456831Y384374D02*
Y398351D01*
X462854Y404375D01*
X218169Y122500D02*
Y130531D01*
X220138Y132499D01*
X143169Y122500D02*
Y130531D01*
X145138Y132499D01*
X293168Y186782D02*
X295137Y188750D01*
X293168Y178751D02*
Y186782D01*
X218168Y205532D02*
X220137Y207500D01*
X218168Y197501D02*
Y205532D01*
X143168D02*
X145137Y207500D01*
X143168Y197501D02*
Y205532D01*
Y280532D02*
X145137Y282500D01*
X143168Y272501D02*
Y280532D01*
X218168D02*
X220137Y282500D01*
X218168Y272501D02*
Y280532D01*
X293168Y261782D02*
X295137Y263750D01*
X293168Y253751D02*
Y261782D01*
X368168Y271157D02*
X370137Y273125D01*
X368168Y263126D02*
Y271157D01*
X443168Y261782D02*
X445137Y263750D01*
X443168Y253751D02*
Y261782D01*
X518168Y252407D02*
X520137Y254375D01*
X518168Y244376D02*
Y252407D01*
Y327407D02*
X520137Y329375D01*
X518168Y319376D02*
Y327407D01*
X368168Y346157D02*
X370137Y348125D01*
X368168Y338126D02*
Y346157D01*
X293168Y336782D02*
X295137Y338750D01*
X293168Y328751D02*
Y336782D01*
X218168Y355532D02*
X220137Y357500D01*
X218168Y347501D02*
Y355532D01*
X143168D02*
X145137Y357500D01*
X143168Y347501D02*
Y355532D01*
X293168Y411782D02*
X295137Y413750D01*
X293168Y403751D02*
Y411782D01*
X368168Y421157D02*
X370137Y423125D01*
X368168Y413126D02*
Y421157D01*
X443168Y411782D02*
X445137Y413750D01*
X443168Y403751D02*
Y411782D01*
X518169Y394375D02*
Y402406D01*
X520138Y404374D01*
D16*
X530827Y389764D02*
D03*
X534527D02*
D03*
D17*
X452362Y99606D02*
D03*
Y87008D02*
D03*
X555512Y99606D02*
D03*
Y87008D02*
D03*
X531890Y99606D02*
D03*
Y87008D02*
D03*
D18*
X296063Y99037D02*
D03*
Y141557D02*
D03*
X366307D02*
D03*
Y99037D02*
D03*
D19*
X285433Y108486D02*
D03*
Y116360D02*
D03*
Y132108D02*
D03*
Y124234D02*
D03*
X376937Y132108D02*
D03*
Y124234D02*
D03*
Y108486D02*
D03*
Y116360D02*
D03*
D20*
X603326Y157766D02*
D03*
X582044Y105739D02*
D03*
D21*
X512763Y152739D02*
D03*
X502763Y97424D02*
D03*
D22*
X425225Y147743D02*
D03*
X426944Y91557D02*
D03*
D23*
X237854Y188750D02*
D03*
X293169Y178750D02*
D03*
X162854Y132500D02*
D03*
X218169Y122500D02*
D03*
X87854Y132500D02*
D03*
X143169Y122500D02*
D03*
X462854Y254375D02*
D03*
X518169Y244375D02*
D03*
X387854Y263750D02*
D03*
X443169Y253750D02*
D03*
X312854Y273125D02*
D03*
X368169Y263125D02*
D03*
X237854Y263750D02*
D03*
X293169Y253750D02*
D03*
X162854Y207500D02*
D03*
X218169Y197500D02*
D03*
X87854Y207500D02*
D03*
X143169Y197500D02*
D03*
X462854Y329375D02*
D03*
X518169Y319375D02*
D03*
X387854Y338750D02*
D03*
X443169Y328750D02*
D03*
X312854Y348125D02*
D03*
X368169Y338125D02*
D03*
X237854Y338750D02*
D03*
X293169Y328750D02*
D03*
X162854Y282500D02*
D03*
X218169Y272500D02*
D03*
X87854Y282500D02*
D03*
X143169Y272500D02*
D03*
X462854Y404375D02*
D03*
X518169Y394375D02*
D03*
X387854Y413750D02*
D03*
X443169Y403750D02*
D03*
X312854Y423125D02*
D03*
X368169Y413125D02*
D03*
X237854Y413750D02*
D03*
X293169Y403750D02*
D03*
X162854Y357500D02*
D03*
X218169Y347500D02*
D03*
X87854Y357500D02*
D03*
X143169Y347500D02*
D03*
D24*
X528937Y318331D02*
D03*
Y320299D02*
D03*
Y322268D02*
D03*
Y324236D02*
D03*
Y326205D02*
D03*
Y328173D02*
D03*
Y330142D02*
D03*
Y332110D02*
D03*
Y334079D02*
D03*
Y336047D02*
D03*
Y338016D02*
D03*
Y339984D02*
D03*
Y341953D02*
D03*
Y343921D02*
D03*
Y345890D02*
D03*
Y347858D02*
D03*
Y349827D02*
D03*
Y351795D02*
D03*
Y353764D02*
D03*
Y355732D02*
D03*
Y357701D02*
D03*
Y359669D02*
D03*
Y361638D02*
D03*
Y363606D02*
D03*
Y365575D02*
D03*
Y367543D02*
D03*
Y369512D02*
D03*
Y371480D02*
D03*
Y373449D02*
D03*
Y375417D02*
D03*
D25*
X539075Y382071D02*
D03*
Y311677D02*
D03*
D26*
X239296Y154454D02*
D03*
X248204Y145546D02*
D03*
X164296Y98204D02*
D03*
X173204Y89296D02*
D03*
X89296Y98204D02*
D03*
X98204Y89296D02*
D03*
X464296Y220079D02*
D03*
X473204Y211171D02*
D03*
X389296Y229454D02*
D03*
X398204Y220546D02*
D03*
X314296Y238829D02*
D03*
X323204Y229921D02*
D03*
X239296Y229454D02*
D03*
X248204Y220546D02*
D03*
X164296Y173204D02*
D03*
X173204Y164296D02*
D03*
X89296Y173204D02*
D03*
X98204Y164296D02*
D03*
X464296Y295079D02*
D03*
X473204Y286171D02*
D03*
X389296Y304454D02*
D03*
X398204Y295546D02*
D03*
X314296Y313829D02*
D03*
X323204Y304921D02*
D03*
X239296Y304454D02*
D03*
X248204Y295546D02*
D03*
X164296Y248204D02*
D03*
X173204Y239296D02*
D03*
X89296Y248204D02*
D03*
X98204Y239296D02*
D03*
X464296Y370079D02*
D03*
X473204Y361171D02*
D03*
X389296Y379454D02*
D03*
X398204Y370546D02*
D03*
X314296Y388829D02*
D03*
X323204Y379921D02*
D03*
X239296Y379454D02*
D03*
X248204Y370546D02*
D03*
X164296Y323204D02*
D03*
X173204Y314296D02*
D03*
X89296Y323204D02*
D03*
X98204Y314296D02*
D03*
D35*
X540748Y338016D02*
D03*
Y330142D02*
D03*
Y322268D02*
D03*
Y355732D02*
D03*
Y363606D02*
D03*
Y371480D02*
D03*
X445287Y99528D02*
D03*
X555512Y77400D02*
D03*
X531890D02*
D03*
X452363D02*
D03*
X522577Y103448D02*
D03*
X602891Y109552D02*
D03*
X613139Y157766D02*
D03*
X522441Y152740D02*
D03*
X435040Y147744D02*
D03*
X357252Y108487D02*
D03*
Y116361D02*
D03*
Y124235D02*
D03*
Y132109D02*
D03*
X305118Y108484D02*
D03*
X364173Y204331D02*
D03*
X473205Y201562D02*
D03*
X520137Y254375D02*
D03*
Y329375D02*
D03*
X523032Y341953D02*
D03*
Y347858D02*
D03*
X294882Y152362D02*
D03*
X305118Y116358D02*
D03*
Y124232D02*
D03*
Y132106D02*
D03*
X523032Y371260D02*
D03*
X368169Y372835D02*
D03*
X523032Y365575D02*
D03*
X445137Y338750D02*
D03*
X443169Y364567D02*
D03*
X523032Y359890D02*
D03*
X451181Y281102D02*
D03*
Y271654D02*
D03*
X534842Y371480D02*
D03*
Y363606D02*
D03*
X523032Y351795D02*
D03*
X534842Y341953D02*
D03*
Y345890D02*
D03*
X473205Y276562D02*
D03*
X398205Y285938D02*
D03*
X323205Y295312D02*
D03*
X248205Y285938D02*
D03*
X173205Y79688D02*
D03*
X98205D02*
D03*
X248205Y135938D02*
D03*
X173205Y154688D02*
D03*
X98205D02*
D03*
X398205Y210938D02*
D03*
X323205Y220312D02*
D03*
X248205Y210938D02*
D03*
X173205Y229688D02*
D03*
X98205D02*
D03*
Y304688D02*
D03*
X173205D02*
D03*
X473205Y351562D02*
D03*
X398205Y360938D02*
D03*
X323205Y370312D02*
D03*
X248205Y360938D02*
D03*
X81831Y112499D02*
D03*
X156831D02*
D03*
X231831Y168749D02*
D03*
X156831Y187499D02*
D03*
X81831D02*
D03*
X381831Y318749D02*
D03*
X456831Y309374D02*
D03*
Y234374D02*
D03*
X381831Y243749D02*
D03*
X306831Y253124D02*
D03*
Y328124D02*
D03*
X231831Y318749D02*
D03*
Y243749D02*
D03*
X156831Y262499D02*
D03*
X81831D02*
D03*
Y337499D02*
D03*
X156831D02*
D03*
X231831Y393749D02*
D03*
X306831Y403124D02*
D03*
X381831Y393749D02*
D03*
X456831Y384374D02*
D03*
X220138Y132499D02*
D03*
X145138D02*
D03*
X295137Y188750D02*
D03*
X220137Y207500D02*
D03*
X145137D02*
D03*
Y282500D02*
D03*
X220137D02*
D03*
X295137Y263750D02*
D03*
X370137Y273125D02*
D03*
X445137Y263750D02*
D03*
X370137Y348125D02*
D03*
X295137Y338750D02*
D03*
X220137Y357500D02*
D03*
X145137D02*
D03*
X295137Y413750D02*
D03*
X370137Y423125D02*
D03*
X445137Y413750D02*
D03*
X520138Y404374D02*
D03*
M02*
