M48
;Layer_Color=9474304
;FILE_FORMAT=2:5
INCH
;TYPE=PLATED
T01F00S00C0.01181
T02F00S00C0.03150
T03F00S00C0.06693
T04F00S00C0.11811
T05F00S00C0.15748
%
T01
X0098205Y0079688
X0081831Y0112499
X0098205Y0154688
X0145138Y0132499
X0156831Y0112499
X0173205Y0079688
Y0154688
X0220138Y0132499
X0248205Y0135938
X0305118Y0132106
Y0124232
Y0116358
Y0108484
X0294882Y0152362
X0357252Y0132109
Y0124235
Y0116361
Y0108487
X0445287Y0099528
X0452363Y0077400
X0435040Y0147744
X0522441Y0152740
X0522577Y0103448
X0531890Y0077400
X0555512
X0602891Y0109552
X0613139Y0157766
X0473205Y0201562
Y0276562
X0520137Y0254375
X0456831Y0234374
X0445137Y0263750
X0451181Y0271654
Y0281102
X0456831Y0309374
X0398205Y0285938
X0370137Y0273125
X0381831Y0243749
X0398205Y0210938
X0364173Y0204331
X0323205Y0220312
Y0295312
X0306831Y0253124
X0295137Y0263750
X0248205Y0285938
X0220137Y0282500
X0231831Y0243749
X0220137Y0207500
X0248205Y0210938
X0231831Y0168749
X0295137Y0188750
X0156831Y0187499
X0173205Y0229688
X0156831Y0262499
X0173205Y0304688
X0145137Y0282500
X0098205Y0304688
X0081831Y0262499
X0098205Y0229688
X0081831Y0187499
X0145137Y0207500
Y0357500
X0081831Y0337499
X0156831
X0220137Y0357500
X0248205Y0360938
X0231831Y0393749
Y0318749
X0295137Y0338750
X0306831Y0328124
Y0403124
X0295137Y0413750
X0323205Y0370312
X0368169Y0372835
X0370137Y0348125
X0398205Y0360938
X0443169Y0364567
X0445137Y0338750
X0456831Y0384374
X0445137Y0413750
X0381831Y0393749
X0370137Y0423125
X0381831Y0318749
X0473205Y0351562
X0523032Y0351795
Y0347858
Y0341953
X0534842
Y0345890
X0540748Y0338016
Y0330142
Y0322268
X0520137Y0329375
X0523032Y0359890
Y0365575
Y0371260
X0534842Y0371480
X0540748Y0371480
Y0363606
X0534842Y0363606
X0540748Y0355732
X0520138Y0404374
T02
X0476378Y0173468
X0480709
X0485039
X0489370
X0493701
X0498032
X0502362
Y0189000
X0498032
X0493701
X0489370
X0485039
X0480709
X0476378
X0423622
X0419291
X0414961
X0410630
X0406299
X0401968
X0397638
Y0173468
X0401968
X0406299
X0410630
X0414961
X0419291
X0423622
T03
X0092500Y0112500
X0132500
X0167500
X0207500
X0414944Y0099914
X0406628Y0139040
X0492763Y0148093
Y0108093
X0574481Y0118254
X0582797Y0157380
X0507500Y0234375
Y0309375
X0467500
Y0234375
X0432500Y0243750
X0392500
X0357500Y0253125
X0317500
X0282500Y0243750
X0242500
X0207500Y0262500
X0167500
Y0187500
X0207500
X0242500Y0168750
X0282500
X0132500Y0187500
X0092500
Y0262500
X0132500
Y0337500
X0092500
X0167500
X0207500
X0242500Y0318750
X0282500
Y0393750
X0242500
X0317500Y0403125
X0357500
X0392500Y0393750
X0432500
X0467500Y0384375
X0432500Y0318750
X0392500
X0357500Y0328125
X0317500
X0507500Y0384375
T04
X0097500Y0122500
X0102500Y0132500
X0122500
X0127500Y0122500
X0172500
X0177500Y0132500
X0197500
X0202500Y0122500
X0417449Y0136229
X0428270Y0133417
X0432428Y0113854
X0423686Y0106884
X0502763Y0113093
X0512763Y0118093
Y0138093
X0502763Y0143093
X0591539Y0150411
X0600281Y0143441
X0596123Y0123878
X0585302Y0121066
X0502500Y0244375
X0497500Y0254375
X0477500
X0472500Y0244375
X0427500Y0253750
X0422500Y0263750
X0402500
X0397500Y0253750
X0352500Y0263125
X0347500Y0273125
X0327500
X0322500Y0263125
X0272500Y0263750
X0277500Y0253750
X0247500
X0252500Y0263750
X0202500Y0272500
X0197500Y0282500
X0177500
X0172500Y0272500
X0177500Y0207500
X0172500Y0197500
X0202500
X0197500Y0207500
X0252500Y0188750
X0247500Y0178750
X0277500
X0272500Y0188750
X0127500Y0197500
X0122500Y0207500
X0102500
X0097500Y0197500
Y0272500
X0102500Y0282500
X0122500
X0127500Y0272500
Y0347500
X0122500Y0357500
X0102500
X0097500Y0347500
X0172500
X0177500Y0357500
X0197500
X0202500Y0347500
X0252500Y0338750
X0247500Y0328750
X0277500
X0272500Y0338750
X0277500Y0403750
X0272500Y0413750
X0252500
X0247500Y0403750
X0322500Y0413125
X0327500Y0423125
X0347500
X0352500Y0413125
X0402500Y0413750
X0397500Y0403750
X0427500
X0422500Y0413750
Y0338750
X0427500Y0328750
X0397500
X0402500Y0338750
X0352500Y0338125
X0347500Y0348125
X0327500
X0322500Y0338125
X0477500Y0329375
X0472500Y0319375
X0502500
X0497500Y0329375
X0502500Y0394375
X0497500Y0404375
X0477500
X0472500Y0394375
T05
X0112500Y0112500
X0187500
X0410786Y0119477
X0492763Y0128093
X0578639Y0137818
X0487500Y0234375
Y0309375
X0412500Y0243750
X0337500Y0253125
X0262500Y0243750
Y0168750
X0187500Y0187500
Y0262500
X0112500
Y0187500
Y0337500
X0187500
X0262500Y0318750
Y0393750
X0337500Y0403125
Y0328125
X0412500Y0318750
Y0393750
X0487500Y0384375
M30
