G04*
G04 #@! TF.GenerationSoftware,Altium Limited,Altium Designer,24.5.2 (23)*
G04*
G04 Layer_Color=8421504*
%FSLAX25Y25*%
%MOIN*%
G70*
G04*
G04 #@! TF.SameCoordinates,87A35CE2-BDC3-414A-9125-E1BB11FDB5FC*
G04*
G04*
G04 #@! TF.FilePolarity,Positive*
G04*
G01*
G75*
%ADD16R,0.02000X0.02200*%
%ADD17R,0.04724X0.04724*%
%ADD18R,0.11811X0.06299*%
%ADD19R,0.23622X0.03937*%
%ADD20P,0.14476X4X123.0*%
%ADD21R,0.10236X0.10236*%
%ADD22P,0.14476X4X147.0*%
%ADD23R,0.10236X0.10236*%
%ADD24R,0.04921X0.01181*%
%ADD25R,0.09843X0.07874*%
%ADD26P,0.06681X4X180.0*%
D16*
X530827Y389764D02*
D03*
X534527D02*
D03*
D17*
X452362Y99606D02*
D03*
Y87008D02*
D03*
X555512Y99606D02*
D03*
Y87008D02*
D03*
X531890Y99606D02*
D03*
Y87008D02*
D03*
D18*
X296063Y99037D02*
D03*
Y141557D02*
D03*
X366307D02*
D03*
Y99037D02*
D03*
D19*
X285433Y108486D02*
D03*
Y116360D02*
D03*
Y132108D02*
D03*
Y124234D02*
D03*
X376937Y132108D02*
D03*
Y124234D02*
D03*
Y108486D02*
D03*
Y116360D02*
D03*
D20*
X603326Y157766D02*
D03*
X582044Y105739D02*
D03*
D21*
X512763Y152739D02*
D03*
X502763Y97424D02*
D03*
D22*
X425225Y147743D02*
D03*
X426944Y91557D02*
D03*
D23*
X237854Y188750D02*
D03*
X293169Y178750D02*
D03*
X162854Y132500D02*
D03*
X218169Y122500D02*
D03*
X87854Y132500D02*
D03*
X143169Y122500D02*
D03*
X462854Y254375D02*
D03*
X518169Y244375D02*
D03*
X387854Y263750D02*
D03*
X443169Y253750D02*
D03*
X312854Y273125D02*
D03*
X368169Y263125D02*
D03*
X237854Y263750D02*
D03*
X293169Y253750D02*
D03*
X162854Y207500D02*
D03*
X218169Y197500D02*
D03*
X87854Y207500D02*
D03*
X143169Y197500D02*
D03*
X462854Y329375D02*
D03*
X518169Y319375D02*
D03*
X387854Y338750D02*
D03*
X443169Y328750D02*
D03*
X312854Y348125D02*
D03*
X368169Y338125D02*
D03*
X237854Y338750D02*
D03*
X293169Y328750D02*
D03*
X162854Y282500D02*
D03*
X218169Y272500D02*
D03*
X87854Y282500D02*
D03*
X143169Y272500D02*
D03*
X462854Y404375D02*
D03*
X518169Y394375D02*
D03*
X387854Y413750D02*
D03*
X443169Y403750D02*
D03*
X312854Y423125D02*
D03*
X368169Y413125D02*
D03*
X237854Y413750D02*
D03*
X293169Y403750D02*
D03*
X162854Y357500D02*
D03*
X218169Y347500D02*
D03*
X87854Y357500D02*
D03*
X143169Y347500D02*
D03*
D24*
X528937Y318331D02*
D03*
Y320299D02*
D03*
Y322268D02*
D03*
Y324236D02*
D03*
Y326205D02*
D03*
Y328173D02*
D03*
Y330142D02*
D03*
Y332110D02*
D03*
Y334079D02*
D03*
Y336047D02*
D03*
Y338016D02*
D03*
Y339984D02*
D03*
Y341953D02*
D03*
Y343921D02*
D03*
Y345890D02*
D03*
Y347858D02*
D03*
Y349827D02*
D03*
Y351795D02*
D03*
Y353764D02*
D03*
Y355732D02*
D03*
Y357701D02*
D03*
Y359669D02*
D03*
Y361638D02*
D03*
Y363606D02*
D03*
Y365575D02*
D03*
Y367543D02*
D03*
Y369512D02*
D03*
Y371480D02*
D03*
Y373449D02*
D03*
Y375417D02*
D03*
D25*
X539075Y382071D02*
D03*
Y311677D02*
D03*
D26*
X239296Y154454D02*
D03*
X248204Y145546D02*
D03*
X164296Y98204D02*
D03*
X173204Y89296D02*
D03*
X89296Y98204D02*
D03*
X98204Y89296D02*
D03*
X464296Y220079D02*
D03*
X473204Y211171D02*
D03*
X389296Y229454D02*
D03*
X398204Y220546D02*
D03*
X314296Y238829D02*
D03*
X323204Y229921D02*
D03*
X239296Y229454D02*
D03*
X248204Y220546D02*
D03*
X164296Y173204D02*
D03*
X173204Y164296D02*
D03*
X89296Y173204D02*
D03*
X98204Y164296D02*
D03*
X464296Y295079D02*
D03*
X473204Y286171D02*
D03*
X389296Y304454D02*
D03*
X398204Y295546D02*
D03*
X314296Y313829D02*
D03*
X323204Y304921D02*
D03*
X239296Y304454D02*
D03*
X248204Y295546D02*
D03*
X164296Y248204D02*
D03*
X173204Y239296D02*
D03*
X89296Y248204D02*
D03*
X98204Y239296D02*
D03*
X464296Y370079D02*
D03*
X473204Y361171D02*
D03*
X389296Y379454D02*
D03*
X398204Y370546D02*
D03*
X314296Y388829D02*
D03*
X323204Y379921D02*
D03*
X239296Y379454D02*
D03*
X248204Y370546D02*
D03*
X164296Y323204D02*
D03*
X173204Y314296D02*
D03*
X89296Y323204D02*
D03*
X98204Y314296D02*
D03*
M02*
